<svg xmlns="http://www.w3.org/2000/svg" width="1920" height="2199" fill="none" viewBox="0 0 1920 2199"><g clip-path="url(#mobile-a)"><path fill="#ffbf94" d="m2223.5 421-2237 154.5-25.5 630 1034.5 32 979 195.5 17.5-266.5z"/><path fill="#f1ecd9" d="M1098 719.544c40.66-42.306 228.82-254.724 433.5-511.544L1802-243V926.5z"/><path fill="#f1ecd9" d="M1242.31 1066.64c-160.52-64.31-175.09-303.232-146.65-340.12 146.83-190.462 249.86-133.559 437.24-133.56 211.41 0 265.23 207.777 269.07 328.98 3.84 121.2-359.01 225.09-559.66 144.7"/><path fill="#000" d="m1756.01 530.85 206.38 62.746v161.971l-219.5-71.501L1668 704l-93.5 51.567-82.47 53.99-78.76 27.725-32.09-5.837 59.8-21.888-27.71-39.398L1460.5 749l31.53-16.5 27.47-24v-41.944L1515 628.5l-59-16-31.5 16-13.42 15.5-20.08 40.066v71.501l-28.05 36.48V749l-29.9 6.567-12.39-89.011 42.29-80.056 69.28-75 106.27-18z"/><path fill="#000" d="m1357.85 755.567-24.8 7.296 10.21 32.102 14.59-2.918zM1432.23 807.368l-21.15-29.913-2.92-5.107-45.21 24.806 12.4 29.184z"/><path fill="#000" d="m1357.85 580.5 66.65-69-33.5 6.5-55.5 42-56 91.5-3 38.5 15 65.567 29.16 36.48-7.16 24.453h12l13-15-13-45.933-12-89.011z"/><path fill="#000" d="m1313.5 792.047-22-29.184 3 24.137 14.5 29.5z"/><path fill="#ff9954" d="M1368.79 970.069c-4.14 7.053-12.4 20.283-12.4 16.781v-21.159zm184.49-482.995-91.15 266.304-47.4 16.781 26.25 39.399-57.61 21.158 31.36 7.296 17.5-7.296-33.55 103.602-28.44 31.373-13.85-3.647-14.59-48.884 28.44-103.602 6.57 16.05 55.42-16.05-24.8-36.481-34.27 18.24L1384 764.5l7-8.5v-10.5l10.6-30.061 82.4-240.767zm-59.07-42.316c9.48.729 29.9 2.335 35.74 2.919 5.83.584 23.33 7.538 31.35 10.943-1.45 5.35-5.1 17.218-8.02 21.888-2.91 4.669-45.45-5.836-66.36-11.673z"/><path fill="#000" d="M64 921.5-13 715v1306l1012.5 70.5 981-70.5v-595l-276-54 214-75.5L1639 1239l122.5-47.5-347.5-51 61-24-103.5-52L1355 991l-49 24.18L1145 963v64.5l-214-106 68.5 106-283-165.5L854 1070.5l-357.5-266 94 223-228-180.5 34 223.5-209.5-266V963L64 804.5z"/><mask id="mobile-b" width="1994" height="758" x="-13" y="706" maskUnits="userSpaceOnUse" style="mask-type:alpha"><path fill="#000" d="M79 887.5-13 706v504.5L4 1426l995.5 37.5 981-37.5-276-54 134.5-70-253-37.5 118.5-54-290.5-70 61-24-103.5-52L1355 991l-49 24.18L1145 963v64.5l-231.5-140 86 140-247.5-140 102 183-360.5-301 97 258-194-209.5v252.5l-172-301L187 963 79 769.5z"/></mask><g mask="url(#mobile-b)"><path fill="#ff9954" d="M1242.31 1066.64c-160.52-64.31-175.09-303.232-146.65-340.12 146.83-190.462 249.86-133.559 437.24-133.56 211.41 0 265.23 207.777 269.07 328.98 3.84 121.2-359.01 225.09-559.66 144.7"/></g></g><defs><clipPath id="mobile-a"><path fill="#fff" d="M0 0h1920v2199H0z"/></clipPath></defs></svg>