<svg xmlns="http://www.w3.org/2000/svg" viewBox="0 0 620 51" width="620" height="51" fill="none"><path fill="#000" d="M606.539 3.453h1.463c4.331 0 8.252-.41 11.998-1.17v45.066h-13.461zM602.404 20.426v19.9c0 3.218.41 4.974 1.405 7.023h-12.116c-.878-1.054-1.755-2.341-2.282-3.746-1.58 2.634-4.331 4.331-8.135 4.331-8.604 0-13.579-5.794-13.579-11.062 0-10.3 20.953-10.827 20.953-19.08 0-1.17-.468-3.336-2.224-3.336-2.634 0-7.316 4.8-7.901 10.126-6.146-.995-9.189-3.746-9.189-6.38 0-3.277 5.736-6.555 15.393-6.555 12.232 0 17.675 4.975 17.675 8.78m-13.52 18.202V23.704c-4.097 3.746-7.725 9.072-7.725 13.051 0 3.102 1.521 6.614 3.219 6.614 2.926 0 3.921-1.697 4.506-4.74M551.501 12.818h1.463c4.331 0 8.311-.41 12.056-1.17v35.7h-13.519zm-1.112-7.843c0-2.75 3.511-4.975 7.842-4.975s7.901 2.224 7.901 4.975-3.57 4.975-7.901 4.975-7.842-2.224-7.842-4.975M513.486 12.818h1.229c4.389 0 8.428-.41 12.232-1.17v6.964c3.336-4.682 8.545-6.965 12.876-6.965 5.033 0 9.013 2.224 9.013 6.79 0 2.926-3.043 6.145-9.189 7.315-.702-5.209-4.155-8.428-7.315-8.428-2.81 0-5.385 3.278-5.385 11.12V47.35h-13.461zM491.782 11.647c12.935 0 18.963 8.662 18.963 17.5 0 9.306-6.614 18.787-18.963 18.787-12.817 0-18.963-8.779-18.963-17.734 0-9.188 6.497-18.553 18.963-18.553m4.156 33.478c2.458 0 3.394-2.107 3.394-5.268 0-8.779-7.608-25.4-11.705-25.4-2.458 0-3.395 2.048-3.395 5.15 0 8.72 7.784 25.518 11.706 25.518M453.944 12.232V5.21h1.229c4.389 0 8.428-.41 12.232-1.17v8.193h4.155v2.459h-4.155v22.708c0 5.15 2.224 7.082 4.097 7.082v2.282c-1.756.352-2.81.586-4.917.586-8.486 0-12.641-5.97-12.641-11.12V14.69h-1.581v-2.459zM435.933 12.818h1.463c4.331 0 8.311-.41 12.057-1.17v35.7h-13.52zm-1.112-7.843c0-2.75 3.511-4.975 7.842-4.975s7.902 2.224 7.902 4.975-3.571 4.975-7.902 4.975-7.842-2.224-7.842-4.975M395.148 29.147c0-11.354 6.789-17.5 13.578-17.5 3.57 0 7.199 1.756 9.716 5.385V5.209h1.229c4.389 0 8.428-.41 12.232-1.17v43.31h-12.291l-.819-4.273c-2.224 3.336-5.443 4.858-8.721 4.858-7.198 0-14.924-7.257-14.924-18.787m18.26 15.041c3.454 0 5.034-8.135 5.034-15.744 0-6.32-1.288-12.232-4.273-12.232-3.394 0-5.443 7.667-5.443 14.983 0 6.672 1.639 12.993 4.682 12.993M393.265 47.349h-30.493V5.209h29.088c0 4.624.41 9.013.703 13.462-4.682-5.326-9.657-9.833-15.627-11.999v18.32c2.926-1.054 5.56-2.986 8.018-5.502v12.29c-2.516-2.516-5.209-4.33-8.018-5.443V45.3c6.204-1.17 11.588-4.682 15.627-11.412 0 4.39.234 7.96.702 13.46M307.041 12.818h1.229c4.389 0 8.428-.41 12.232-1.17v6.379c3.043-4.273 7.55-6.38 11.822-6.38 6.029 0 11.589 4.39 11.589 13.403v22.299h-13.579v-20.25c0-6.614-2.341-10.067-4.74-10.067-2.517 0-5.092 3.746-5.092 11.413v18.904h-13.461zM285.337 11.647c12.934 0 18.963 8.662 18.963 17.5 0 9.306-6.614 18.787-18.963 18.787-12.818 0-18.963-8.779-18.963-17.734 0-9.188 6.497-18.553 18.963-18.553m4.155 33.478c2.458 0 3.395-2.107 3.395-5.268 0-8.779-7.609-25.4-11.706-25.4-2.458 0-3.394 2.048-3.394 5.15 0 8.72 7.784 25.518 11.705 25.518M210.962 9.621h1.229c4.39 0 8.428-.41 12.232-1.17v6.262c2.751-4.038 6.731-6.262 10.418-6.262 3.804 0 7.257 2.4 8.721 7.491 2.75-4.799 7.14-7.491 11.178-7.491 5.034 0 9.482 4.155 9.482 13.403v22.299h-13.579v-20.25c0-5.97-1.463-8.838-2.985-8.838-1.638 0-3.336 3.453-3.336 10.183v18.905h-13.578v-20.25c0-5.97-1.463-8.838-2.985-8.838-1.639 0-3.336 3.453-3.336 10.183v18.905h-13.461zM154.321 16.013h1.229c4.389 0 8.428-.41 12.232-1.171v6.262c2.751-4.038 6.731-6.262 10.418-6.262 3.804 0 7.257 2.4 8.72 7.492 2.751-4.8 7.141-7.492 11.179-7.492 5.033 0 9.482 4.155 9.482 13.403v22.299h-13.579v-20.25c0-5.97-1.463-8.838-2.985-8.838-1.638 0-3.336 3.453-3.336 10.183v18.905h-13.578v-20.25c0-5.97-1.463-8.838-2.985-8.838-1.639 0-3.336 3.453-3.336 10.183v18.905h-13.461zM132.618 11.647c12.934 0 18.962 8.662 18.962 17.5 0 9.306-6.613 18.787-18.962 18.787-12.818 0-18.963-8.779-18.963-17.734 0-9.188 6.496-18.553 18.963-18.553m4.155 33.478c2.458 0 3.395-2.107 3.395-5.268 0-8.779-7.609-25.4-11.706-25.4-2.458 0-3.394 2.048-3.394 5.15 0 8.72 7.784 25.518 11.705 25.518M111.784 30.61a18.8 18.8 0 0 1 .527 4.39c0 6.73-6.848 12.934-16.037 12.934-11.94 0-16.738-8.428-16.738-17.265 0-9.072 5.091-19.022 17.44-19.022 8.663 0 12.994 3.278 12.994 6.79 0 2.926-3.044 6.145-9.189 7.315-.468-3.453-5.033-11.237-7.726-11.237-1.112 0-1.873 1.405-1.873 5.092 0 6.496 3.044 16.739 9.95 16.739 3.98 0 8.194-2.049 10.652-5.736M40.353 12.818h1.23c4.389 0 8.427-.41 12.231-1.17v6.379c3.044-4.273 7.55-6.38 11.823-6.38 6.028 0 11.588 4.39 11.588 13.403v22.299H63.647v-20.25c0-6.614-2.341-10.067-4.74-10.067-2.517 0-5.093 3.746-5.093 11.413v18.904H40.353zM0 32.951V5.21h14.164v34.765c0 3.863 2.106 5.619 4.155 5.619 2.048 0 4.155-1.756 4.155-5.619V5.21h14.164v27.742c0 12.35-9.13 14.983-18.26 14.983C9.188 47.934 0 45.242 0 32.951"/></svg>